/* XPM */
static char * checkbox_xpm[] = {
"16 13 3 1",
" 	c None",
".	c #000000",
"+	c #FFFFFF",
" .............  ",
" .+++++++++++.  ",
" .+++++++++++.  ",
" .+++++++++++.  ",
" .+++++++++++.  ",
" .+++++++++++.  ",
" .+++++++++++.  ",
" .+++++++++++.  ",
" .+++++++++++.  ",
" .+++++++++++.  ",
" .+++++++++++.  ",
" .+++++++++++.  ",
" .............  "};
