<?xml version="1.0" encoding="UTF-8" standalone="no"?>
<!-- Created with Inkscape (http://www.inkscape.org/) -->

<svg
   xmlns:dc="http://purl.org/dc/elements/1.1/"
   xmlns:cc="http://creativecommons.org/ns#"
   xmlns:rdf="http://www.w3.org/1999/02/22-rdf-syntax-ns#"
   xmlns:svg="http://www.w3.org/2000/svg"
   xmlns="http://www.w3.org/2000/svg"
   xmlns:sodipodi="http://sodipodi.sourceforge.net/DTD/sodipodi-0.dtd"
   xmlns:inkscape="http://www.inkscape.org/namespaces/inkscape"
   id="svg7384"
   sodipodi:docname="anaconda-selected-icon.svg"
   version="1.1"
   inkscape:version="0.48+devel r11963"
   height="16"
   width="16">
  <metadata
     id="metadata90">
    <rdf:RDF>
      <cc:Work
         rdf:about="">
        <dc:format>image/svg+xml</dc:format>
        <dc:type
           rdf:resource="http://purl.org/dc/dcmitype/StillImage" />
        <dc:title>Gnome Symbolic Icon Theme</dc:title>
      </cc:Work>
    </rdf:RDF>
  </metadata>
  <sodipodi:namedview
     inkscape:cy="6.5413406"
     pagecolor="#ffffff"
     borderopacity="1"
     showborder="true"
     inkscape:bbox-paths="false"
     guidetolerance="10"
     inkscape:object-paths="true"
     inkscape:window-width="1145"
     showguides="true"
     inkscape:object-nodes="true"
     inkscape:snap-bbox="true"
     inkscape:pageshadow="2"
     inkscape:guide-bbox="true"
     inkscape:snap-nodes="false"
     bordercolor="#666666"
     objecttolerance="10"
     id="namedview88"
     showgrid="false"
     inkscape:window-maximized="0"
     inkscape:window-x="201"
     inkscape:snap-global="true"
     inkscape:window-y="27"
     gridtolerance="10"
     inkscape:window-height="709"
     inkscape:snap-to-guides="true"
     inkscape:current-layer="layer15"
     inkscape:snap-bbox-midpoints="false"
     inkscape:zoom="16"
     inkscape:cx="6.9516857"
     inkscape:snap-grids="true"
     inkscape:pageopacity="0"
     borderlayer="true">
    <inkscape:grid
       spacingx="1px"
       spacingy="1px"
       id="grid4866"
       empspacing="2"
       enabled="true"
       type="xygrid"
       snapvisiblegridlinesonly="true"
       visible="true" />
  </sodipodi:namedview>
  <title
     id="title9167">Gnome Symbolic Icon Theme</title>
  <defs
     id="defs7386" />
  <g
     inkscape:label="status"
     transform="translate(-482,-381.99998)"
     inkscape:groupmode="layer"
     id="layer9"
     style="display:inline" />
  <g
     inkscape:label="devices"
     transform="translate(-482,-381.99998)"
     inkscape:groupmode="layer"
     id="layer10" />
  <g
     inkscape:label="apps"
     transform="translate(-482,-381.99998)"
     inkscape:groupmode="layer"
     id="layer11" />
  <g
     inkscape:label="actions"
     transform="translate(-482,-381.99998)"
     inkscape:groupmode="layer"
     id="layer12" />
  <g
     inkscape:label="places"
     transform="translate(-482,-381.99998)"
     inkscape:groupmode="layer"
     id="layer13" />
  <g
     inkscape:label="mimetypes"
     transform="translate(-482,-381.99998)"
     inkscape:groupmode="layer"
     id="layer14" />
  <g
     inkscape:label="emblems"
     transform="translate(-482,-381.99998)"
     inkscape:groupmode="layer"
     id="layer15"
     style="display:inline">
    <g
       inkscape:label="emblem-important"
       transform="translate(135.8093,-581.17812)"
       id="g17779" />
    <path
       style="color:#000000;fill:#ffffff;fill-opacity:1;fill-rule:nonzero;stroke:none;stroke-width:1.5;marker:none;visibility:visible;display:inline;overflow:visible;enable-background:accumulate"
       d="M 11.53125 4.3125 C 11.784964 4.3148534 12.043986 4.3496993 12.28125 4.40625 C 12.035802 4.3478581 11.794428 4.3125 11.53125 4.3125 z M 12.28125 4.40625 C 12.505761 4.4597611 12.733193 4.5282014 12.9375 4.625 C 12.73111 4.5265635 12.508413 4.460292 12.28125 4.40625 z M 13.6875 5.125 C 13.850992 5.2667533 13.991932 5.4225624 14.125 5.59375 C 13.993811 5.4260074 13.847799 5.2645304 13.6875 5.125 z M 14.125 5.59375 L 11.71875 7.90625 L 10.8125 6.90625 L 9.78125 7.90625 L 11.71875 9.84375 L 14.78125 7.09375 C 14.688509 6.5295894 14.461839 6.0244437 14.125 5.59375 z M 14.84375 7.625 C 14.84375 8.544865 14.444846 9.3969938 13.84375 10 C 14.452893 9.395735 14.84375 8.5537662 14.84375 7.625 z "
       transform="translate(482,381.99998)"
       id="path1012" />
    <path
       inkscape:connector-curvature="0"
       d="m 493.51417,386.30805 c -1.82723,0 -3.30412,1.49216 -3.30412,3.33188 0,1.83973 1.47689,3.33189 3.30412,3.33189 1.82723,0 3.318,-1.49216 3.318,-3.33189 0,-0.18508 -0.0267,-0.36456 -0.0555,-0.54143 l -3.06223,2.74335 -1.92929,-1.93014 1.01176,-0.99284 0.91795,0.98022 2.40931,-2.31382 C 495.51856,386.80617 494.57294,386.30805 493.51417,386.30805 Z"
       id="path74"
       sodipodi:nodetypes="ssssccccccs"
       style="fill:#000000;fill-opacity:1;fill-rule:evenodd;stroke:none;display:inline" />
  </g>
  <g
     inkscape:label="categories"
     transform="translate(-482,-381.99998)"
     inkscape:groupmode="layer"
     id="g4953"
     style="display:inline" />
</svg>
